<?xml version="1.0" encoding="utf-8" ?>
<svg xmlns="http://www.w3.org/2000/svg" xmlns:xlink="http://www.w3.org/1999/xlink" width="439" height="568">
	<path fill="white" d="M217.535 208.133C228.513 207.958 256.58 208.113 264.786 214.497C267.552 216.649 267.852 219.054 268.229 222.343C270.681 222.325 273.183 222.922 275.625 223.205C280.48 223.768 285.035 223.77 289.902 223.272C304.508 221.778 318.609 217.059 333.235 215.676C336.385 215.378 339.577 215.424 342.739 215.424C346.779 215.425 350.561 215.47 354.532 216.341C350.458 217.719 346.481 221.113 342.983 223.629C329.702 233.183 316.799 243.188 305.447 255.016C307.814 255.06 310.239 255.569 312.617 255.743C317.341 256.089 322.058 256.008 326.782 255.722C331.444 255.44 336.182 255.199 340.825 254.717C356.56 253.085 374.901 250.21 390.587 252.675C396.762 253.645 408.983 257.207 412.524 262.555C413.567 264.13 413.027 266.466 412.642 268.188C409.624 281.671 401.903 292.971 390.166 300.323C374.268 310.281 354.224 313.123 336.021 308.939C327.502 306.982 312.555 300.526 307.959 292.97C306.775 291.024 306.676 289 306.811 286.789C307.507 275.359 315.545 272.599 317.969 263.05C313.648 262.693 309.167 262.423 304.831 262.418C297.632 262.41 273.816 264.207 268.404 261.529C268.213 261.162 268.089 260.879 268.091 260.456C268.098 259.323 268.493 258.053 268.819 256.976C271.654 247.608 281.522 243.905 288.111 237.684C289.262 236.598 291.108 234.947 291.152 233.266C290.738 232.726 290.529 232.564 289.833 232.487C286.525 232.122 282.396 232.794 279.266 233.814C266.356 238.018 261.235 249.186 251.888 257.725C249.74 259.687 247.183 261.748 244.585 263.071C243.215 263.77 241.586 264.003 240.394 264.994L240.508 265.502C241.194 265.99 241.882 266.297 242.685 266.534C244.65 267.114 246.74 267.353 248.738 267.824Q257.158 269.752 265.461 272.132Q273.145 274.355 280.258 278.017C285.77 280.893 290.94 284.864 292.813 291.039C294.79 297.557 292.687 304.236 289.545 310.002C280.426 326.738 252.844 340.971 235.496 347.876C230.876 349.715 226.037 351.174 221.268 352.589C208.853 356.274 195.517 358.618 182.581 356.981C163.341 354.547 158.713 346.051 149.972 330.468C147.674 326.371 145.37 322.291 141.845 319.093C139.311 316.794 135.902 315.264 132.901 313.639C126.757 311.049 120.962 309.26 114.311 308.487C97.0363 306.48 76.6537 312.163 63.0231 322.962C63.6364 328.287 64.4397 333.22 67.6731 337.672C76.7152 350.12 96.1488 350.098 110.073 351.63C113.934 352.054 117.798 352.847 121.638 353.457C118.348 354.202 115.137 355.261 111.857 356.053C106.315 357.392 100.38 358.368 94.7034 358.965C76.6629 360.864 48.0078 361.624 33.2148 349.542C29.1357 346.211 26.5462 342.152 26.0382 336.85C25.4711 330.932 26.5628 325.974 30.4224 321.346C41.0562 308.596 69.5207 302.87 85.3855 301.408C93.0517 300.701 100.956 300.184 108.645 300.236C129.001 300.372 166.729 303.781 181.947 318.035C187.803 323.52 190.429 331.55 195.356 337.766C197.062 339.916 198.958 341.512 201.047 343.245C205.514 339.782 210.966 337.517 216.04 335.081C222.77 331.848 229.457 328.565 235.611 324.308C247.715 315.937 252.498 306.214 255.064 292.046C234.473 270.43 193.799 295.412 172.473 283.605C170.278 282.39 164.28 278.141 163.763 275.727C163.676 275.32 163.763 275.334 163.964 275.011C164.375 275.047 164.783 275.063 165.196 275.046C168.854 274.89 173.272 273.111 176.759 271.932C196.015 265.421 212.137 254.36 226.566 240.159C229.154 237.611 231.808 235.101 234.208 232.371C229.936 228.071 225.301 225.041 219.202 224.068C201.95 221.315 180.547 237.151 163.207 240.475C158.931 241.294 154.844 241.668 150.583 240.493C145.037 238.964 140.385 235.393 137.588 230.399C140.269 228.199 143.599 226.514 146.659 224.908C167.707 213.858 193.966 209.144 217.535 208.133ZM373.605 264.411C370.031 264.816 366.447 265.203 362.9 265.802C353.614 267.371 344.318 269.509 334.827 268.903C331.885 275.025 327.486 278.293 327.813 285.599C332.137 291.493 339.671 295.148 346.714 296.585C357.745 298.341 369.399 296.839 378.671 290.176C383.886 286.429 387.655 281.895 389.739 275.767C390.476 273.597 390.938 271.301 391.821 269.186C386.308 265.572 380.265 263.624 373.605 264.411Z"/>
</svg>
